<svg xmlns="http://www.w3.org/2000/svg" viewBox="0 0 134.78 236.42"><defs><style>.cls-1{fill:#fee2a5;}.cls-2{fill:none;stroke:#443125;stroke-miterlimit:10;stroke-width:3px;}.cls-3{fill:#443125;}.cls-4{fill:#c62236;}.cls-5{fill:#38bd9d;}.cls-6{fill:#deac23;}</style></defs><title>design</title><g id="Layer_2" data-name="Layer 2"><g id="OBJECTS"><rect class="cls-1" width="134.78" height="236.42"/><rect class="cls-2" x="11.6" y="9.54" width="111.58" height="217.34"/><path class="cls-3" d="M67.24,139.9l29.54,38.93L67.24,217.76,37.7,178.83,67.24,139.9m0-8.27-4,5.25L33.72,175.81l-2.29,3,2.29,3,29.54,38.93,4,5.25,4-5.25,29.54-38.93,2.29-3-2.29-3L71.23,136.87l-4-5.25Z"/><polygon class="cls-4" points="67.24 201.79 37.7 162.86 67.24 123.93 96.78 162.86 67.24 201.79"/><polygon class="cls-3" points="67.24 186.89 49.01 162.86 67.24 138.83 85.47 162.86 67.24 186.89"/><path class="cls-3" d="M67.24,17.78,96.78,56.71,67.24,95.65,37.7,56.71,67.24,17.78m0-8.27-4,5.25L33.72,53.69l-2.29,3,2.29,3L63.26,98.67l4,5.25,4-5.25,29.54-38.93,2.29-3-2.29-3L71.23,14.76l-4-5.25Z"/><polygon class="cls-5" points="67.24 174.78 58.2 162.86 67.24 150.94 76.29 162.86 67.24 174.78"/><polygon class="cls-4" points="67.24 110.68 37.7 71.74 67.24 32.81 96.78 71.74 67.24 110.68"/><path class="cls-3" d="M67.24,123.93l29.54,38.93L67.24,201.8,37.7,162.86l29.54-38.93m0-8.27-4,5.25L33.72,159.84l-2.29,3,2.29,3,29.54,38.93,4,5.25,4-5.25,29.54-38.93,2.29-3-2.29-3L71.23,120.9l-4-5.25Z"/><path class="cls-3" d="M67.24,32.81,96.78,71.74,67.24,110.68,37.7,71.74,67.24,32.81m0-8.27-4,5.25L33.72,68.72l-2.29,3,2.29,3L63.26,113.7l4,5.25,4-5.25,29.54-38.93,2.29-3-2.29-3L71.23,29.79l-4-5.25Z"/><polygon class="cls-3" points="67.24 95.77 49.01 71.74 67.24 47.72 85.47 71.74 67.24 95.77"/><polygon class="cls-3" points="93.08 141.38 74.85 117.35 93.08 93.33 93.08 141.38"/><polygon class="cls-5" points="67.24 83.66 58.2 71.74 67.24 59.82 76.29 71.74 67.24 83.66"/><rect class="cls-6" x="84.71" y="108.93" width="16.83" height="16.83" transform="translate(110.26 -31.48) rotate(45)"/><rect class="cls-4" x="93.42" y="111.07" width="12.57" height="12.57" transform="translate(112.18 -36.13) rotate(45)"/><rect class="cls-5" x="102.01" y="113.09" width="8.53" height="8.53" transform="translate(114.11 -40.78) rotate(45)"/><polygon class="cls-3" points="42.42 141.38 60.65 117.35 42.42 93.33 42.42 141.38"/><rect class="cls-6" x="33.95" y="108.93" width="16.83" height="16.83" transform="translate(155.3 170.38) rotate(135)"/><rect class="cls-4" x="29.51" y="111.07" width="12.57" height="12.57" transform="translate(144.08 175.02) rotate(135)"/><rect class="cls-5" x="24.95" y="113.09" width="8.53" height="8.53" transform="translate(132.85 179.67) rotate(135)"/><polygon class="cls-3" points="17.7 41.04 17.7 14.74 44.01 14.74 17.7 41.04"/><polygon class="cls-4" points="22.53 36.22 22.53 19.57 39.18 19.57 22.53 36.22"/><rect class="cls-6" x="26.9" y="24.47" width="11.74" height="11.74"/><polygon class="cls-3" points="117.28 41.04 117.28 14.74 90.97 14.74 117.28 41.04"/><polygon class="cls-4" points="112.45 36.22 112.45 19.57 95.8 19.57 112.45 36.22"/><rect class="cls-6" x="96.34" y="24.47" width="11.74" height="11.74" transform="translate(204.41 60.69) rotate(180)"/><rect class="cls-5" x="17.55" y="44.9" width="6.58" height="6.58" transform="translate(40.18 -0.62) rotate(45)"/><rect class="cls-6" x="17.55" y="48.91" width="6.58" height="6.58" transform="translate(43.01 0.55) rotate(45)"/><rect class="cls-5" x="17.55" y="52.92" width="6.58" height="6.58" transform="translate(45.85 1.73) rotate(45)"/><rect class="cls-6" x="17.55" y="56.92" width="6.58" height="6.58" transform="translate(48.68 2.9) rotate(45)"/><rect class="cls-5" x="17.55" y="60.93" width="6.58" height="6.58" transform="translate(51.51 4.08) rotate(45)"/><rect class="cls-6" x="17.55" y="64.94" width="6.58" height="6.58" transform="translate(54.35 5.25) rotate(45)"/><rect class="cls-5" x="17.55" y="68.95" width="6.58" height="6.58" transform="translate(57.18 6.42) rotate(45)"/><rect class="cls-6" x="17.55" y="72.96" width="6.58" height="6.58" transform="translate(60.02 7.6) rotate(45)"/><rect class="cls-5" x="17.55" y="76.96" width="6.58" height="6.58" transform="translate(62.85 8.77) rotate(45)"/><rect class="cls-6" x="17.55" y="80.97" width="6.58" height="6.58" transform="translate(65.68 9.95) rotate(45)"/><rect class="cls-5" x="17.55" y="84.98" width="6.58" height="6.58" transform="translate(68.52 11.12) rotate(45)"/><rect class="cls-6" x="17.55" y="88.99" width="6.58" height="6.58" transform="translate(71.35 12.29) rotate(45)"/><rect class="cls-5" x="17.55" y="93" width="6.58" height="6.58" transform="translate(74.19 13.47) rotate(45)"/><rect class="cls-6" x="17.55" y="97" width="6.58" height="6.58" transform="translate(77.02 14.64) rotate(45)"/><rect class="cls-5" x="17.55" y="101.01" width="6.58" height="6.58" transform="translate(79.85 15.82) rotate(45)"/><rect class="cls-6" x="17.55" y="105.02" width="6.58" height="6.58" transform="translate(82.69 16.99) rotate(45)"/><rect class="cls-5" x="111.48" y="44.9" width="6.58" height="6.58" transform="translate(67.69 -67.04) rotate(45)"/><rect class="cls-6" x="111.48" y="48.91" width="6.58" height="6.58" transform="translate(70.52 -65.87) rotate(45)"/><rect class="cls-5" x="111.48" y="52.92" width="6.58" height="6.58" transform="translate(73.36 -64.69) rotate(45)"/><rect class="cls-6" x="111.48" y="56.92" width="6.58" height="6.58" transform="translate(76.19 -63.52) rotate(45)"/><rect class="cls-5" x="111.48" y="60.93" width="6.58" height="6.58" transform="translate(79.02 -62.34) rotate(45)"/><rect class="cls-6" x="111.48" y="64.94" width="6.58" height="6.58" transform="translate(81.86 -61.17) rotate(45)"/><rect class="cls-5" x="111.48" y="68.95" width="6.58" height="6.58" transform="translate(84.69 -60) rotate(45)"/><rect class="cls-6" x="111.48" y="72.96" width="6.58" height="6.58" transform="translate(87.53 -58.82) rotate(45)"/><rect class="cls-5" x="111.48" y="76.96" width="6.58" height="6.58" transform="translate(90.36 -57.65) rotate(45)"/><rect class="cls-6" x="111.48" y="80.97" width="6.58" height="6.58" transform="translate(93.19 -56.48) rotate(45)"/><rect class="cls-5" x="111.48" y="84.98" width="6.58" height="6.58" transform="translate(96.03 -55.3) rotate(45)"/><rect class="cls-6" x="111.48" y="88.99" width="6.58" height="6.58" transform="translate(98.86 -54.13) rotate(45)"/><rect class="cls-5" x="111.48" y="93" width="6.58" height="6.58" transform="translate(101.7 -52.95) rotate(45)"/><rect class="cls-6" x="111.48" y="97" width="6.58" height="6.58" transform="translate(104.53 -51.78) rotate(45)"/><rect class="cls-5" x="111.48" y="101.01" width="6.58" height="6.58" transform="translate(107.37 -50.61) rotate(45)"/><rect class="cls-6" x="111.48" y="105.02" width="6.58" height="6.58" transform="translate(110.2 -49.43) rotate(45)"/><polygon class="cls-3" points="17.7 194.68 17.7 220.98 44.01 220.98 17.7 194.68"/><polygon class="cls-4" points="22.53 199.51 22.53 216.15 39.18 216.15 22.53 199.51"/><rect class="cls-6" x="26.9" y="199.51" width="11.74" height="11.74"/><polygon class="cls-3" points="117.28 194.68 117.28 220.98 90.97 220.98 117.28 194.68"/><polygon class="cls-4" points="112.45 199.51 112.45 216.15 95.8 216.15 112.45 199.51"/><rect class="cls-6" x="96.34" y="199.51" width="11.74" height="11.74" transform="translate(204.41 410.76) rotate(180)"/><rect class="cls-5" x="17.55" y="184.25" width="6.58" height="6.58" transform="translate(-126.5 69.66) rotate(-45)"/><rect class="cls-6" x="17.55" y="180.24" width="6.58" height="6.58" transform="translate(-123.67 68.49) rotate(-45)"/><rect class="cls-5" x="17.55" y="176.23" width="6.58" height="6.58" transform="translate(-120.84 67.31) rotate(-45)"/><rect class="cls-6" x="17.55" y="172.22" width="6.58" height="6.58" transform="translate(-118 66.14) rotate(-45)"/><rect class="cls-5" x="17.55" y="168.22" width="6.58" height="6.58" transform="translate(-115.17 64.97) rotate(-45)"/><rect class="cls-6" x="17.55" y="164.21" width="6.58" height="6.58" transform="translate(-112.34 63.79) rotate(-45)"/><rect class="cls-5" x="17.55" y="160.2" width="6.58" height="6.58" transform="translate(-109.5 62.62) rotate(-45)"/><rect class="cls-6" x="17.55" y="156.19" width="6.58" height="6.58" transform="translate(-106.67 61.44) rotate(-45)"/><rect class="cls-5" x="17.55" y="152.18" width="6.58" height="6.58" transform="translate(-103.83 60.27) rotate(-45)"/><rect class="cls-6" x="17.55" y="148.18" width="6.58" height="6.58" transform="translate(-101 59.1) rotate(-45)"/><rect class="cls-5" x="17.55" y="144.17" width="6.58" height="6.58" transform="translate(-98.16 57.92) rotate(-45)"/><rect class="cls-6" x="17.55" y="140.16" width="6.58" height="6.58" transform="translate(-95.33 56.75) rotate(-45)"/><rect class="cls-5" x="17.55" y="136.15" width="6.58" height="6.58" transform="translate(-92.5 55.57) rotate(-45)"/><rect class="cls-6" x="17.55" y="132.14" width="6.58" height="6.58" transform="translate(-89.66 54.4) rotate(-45)"/><rect class="cls-5" x="17.55" y="128.14" width="6.58" height="6.58" transform="translate(-86.83 53.23) rotate(-45)"/><rect class="cls-6" x="17.55" y="124.13" width="6.58" height="6.58" transform="translate(-83.99 52.05) rotate(-45)"/><rect class="cls-5" x="111.48" y="184.25" width="6.58" height="6.58" transform="translate(-98.99 136.08) rotate(-45)"/><rect class="cls-6" x="111.48" y="180.24" width="6.58" height="6.58" transform="translate(-96.16 134.91) rotate(-45)"/><rect class="cls-5" x="111.48" y="176.23" width="6.58" height="6.58" transform="translate(-93.32 133.73) rotate(-45)"/><rect class="cls-6" x="111.48" y="172.22" width="6.58" height="6.58" transform="translate(-90.49 132.56) rotate(-45)"/><rect class="cls-5" x="111.48" y="168.22" width="6.58" height="6.58" transform="translate(-87.66 131.38) rotate(-45)"/><rect class="cls-6" x="111.48" y="164.21" width="6.58" height="6.58" transform="translate(-84.82 130.21) rotate(-45)"/><rect class="cls-5" x="111.48" y="160.2" width="6.58" height="6.58" transform="translate(-81.99 129.04) rotate(-45)"/><rect class="cls-6" x="111.48" y="156.19" width="6.58" height="6.58" transform="translate(-79.15 127.86) rotate(-45)"/><rect class="cls-5" x="111.48" y="152.18" width="6.58" height="6.58" transform="translate(-76.32 126.69) rotate(-45)"/><rect class="cls-6" x="111.48" y="148.18" width="6.58" height="6.58" transform="translate(-73.49 125.52) rotate(-45)"/><rect class="cls-5" x="111.48" y="144.17" width="6.58" height="6.58" transform="translate(-70.65 124.34) rotate(-45)"/><rect class="cls-6" x="111.48" y="140.16" width="6.58" height="6.58" transform="translate(-67.82 123.17) rotate(-45)"/><rect class="cls-5" x="111.48" y="136.15" width="6.58" height="6.58" transform="translate(-64.98 121.99) rotate(-45)"/><rect class="cls-6" x="111.48" y="132.14" width="6.58" height="6.58" transform="translate(-62.15 120.82) rotate(-45)"/><rect class="cls-5" x="111.48" y="128.14" width="6.58" height="6.58" transform="translate(-59.32 119.65) rotate(-45)"/><rect class="cls-6" x="111.48" y="124.13" width="6.58" height="6.58" transform="translate(-56.48 118.47) rotate(-45)"/></g></g></svg>