<svg id="Layer_1" data-name="Layer 1" xmlns="http://www.w3.org/2000/svg" viewBox="0 0 233.88 5.88"><defs><style>.cls-1{fill:#00b4a0;}.cls-2{fill:#ee3d40;}.cls-3{fill:#fbba1b;}.cls-4{fill:none;}</style></defs><title>high_r</title><g id="Layer_2" data-name="Layer 2"><g id="Layer_1-2" data-name="Layer 1-2"><path class="cls-1" d="M232.88,5.88a1,1,0,0,0,1-1V1a1,1,0,0,0-1-1H1A1,1,0,0,0,0,1V4.88a1,1,0,0,0,1,1Z"/><path class="cls-2" d="M232.88,5.88a1,1,0,0,0,1-1V1a1,1,0,0,0-1-1h-76a1,1,0,0,0-1,1V4.88a1,1,0,0,0,1,1Z"/><path class="cls-3" d="M154.88,5.88a1,1,0,0,0,1-1V1a1,1,0,0,0-1-1h-76a1,1,0,0,0-1,1V4.88a1,1,0,0,0,1,1Z"/><path class="cls-4" d="M232.88,5.88a1,1,0,0,0,1-1V1a1,1,0,0,0-1-1H1A1,1,0,0,0,0,1V4.88a1,1,0,0,0,1,1Z"/></g></g></svg>