<svg xmlns="http://www.w3.org/2000/svg" viewBox="0 0 233.88 5.88"><defs><style>.cls-1{fill:#00b4a0;}.cls-2{fill:#ee3d40;}.cls-3{fill:#fbba1b;}.cls-4{fill:none;}</style></defs><title>high</title><g id="Layer_2" data-name="Layer 2"><g id="Layer_1-2" data-name="Layer 1"><path class="cls-1" d="M1,0A1,1,0,0,0,0,1V4.88a1,1,0,0,0,1,1H232.88a1,1,0,0,0,1-1V1a1,1,0,0,0-1-1Z"/><path class="cls-2" d="M1,0A1,1,0,0,0,0,1V4.88a1,1,0,0,0,1,1H77a1,1,0,0,0,1-1V1a1,1,0,0,0-1-1Z"/><path class="cls-3" d="M79,0a1,1,0,0,0-1,1V4.88a1,1,0,0,0,1,1h76a1,1,0,0,0,1-1V1a1,1,0,0,0-1-1Z"/><path class="cls-4" d="M1,0A1,1,0,0,0,0,1V4.88a1,1,0,0,0,1,1H232.88a1,1,0,0,0,1-1V1a1,1,0,0,0-1-1Z"/></g></g></svg>