<svg xmlns="http://www.w3.org/2000/svg" viewBox="0 0 195.94 60.4"><defs><style>.cls-1,.cls-2,.cls-3{stroke:#fff;}.cls-1,.cls-2{stroke-miterlimit:4.25;}.cls-1{stroke-width:2px;}.cls-2,.cls-3{stroke-width:0.5px;}.cls-3{stroke-miterlimit:10;}</style></defs><title>Asset 2</title><g id="Layer_2" data-name="Layer 2"><g id="Layer_1-2" data-name="Layer 1"><path class="cls-1" d="M61.82,7.89a15.88,15.88,0,0,0-3.28-3.61,14.37,14.37,0,0,0-4.47-2.42A17.28,17.28,0,0,0,48.49,1a50.09,50.09,0,0,0-9.64,1,81.22,81.22,0,0,0-10.5,2.83A86.39,86.39,0,0,0,18.14,9.08a54.4,54.4,0,0,0-8.74,5.29,29.63,29.63,0,0,0-6.11,6A10.58,10.58,0,0,0,1,26.68a3.38,3.38,0,0,0,1.8,3,14.5,14.5,0,0,0,4.88,1.68,53.77,53.77,0,0,0,7.05.78q4,.21,8.33.37,5,.17,10,.45A62.53,62.53,0,0,1,42,34.06a19.38,19.38,0,0,1,6.44,2.38,4.88,4.88,0,0,1,2.46,4.35q0,2.63-2.58,5.7a31.86,31.86,0,0,1-6.4,5.7,40.24,40.24,0,0,1-8.24,4.35,22.42,22.42,0,0,1-8,1.72,4,4,0,0,1-3.08-1.11,3.89,3.89,0,0,1-1-2.75,9.22,9.22,0,0,1,1.19-4.18A13.85,13.85,0,0,1,26.26,46a.5.5,0,0,0,.16-.74c-.16-.33-.44-.36-.82-.08a16.15,16.15,0,0,0-3.94,4.68,9.84,9.84,0,0,0-1.31,4.59,4.75,4.75,0,0,0,5.25,5,19.73,19.73,0,0,0,5.5-.86A36.31,36.31,0,0,0,37,56.25a45.81,45.81,0,0,0,5.66-3.32A36.11,36.11,0,0,0,47.47,49a19.6,19.6,0,0,0,3.32-4.18,8.08,8.08,0,0,0,1.23-4,5.67,5.67,0,0,0-2.62-4.92,19.6,19.6,0,0,0-6.77-2.75,59.07,59.07,0,0,0-9.31-1.27q-5.17-.33-10.25-.49-3.86-.16-7.59-.37a61.29,61.29,0,0,1-6.69-.7A20.22,20.22,0,0,1,4,29q-1.85-.82-1.85-2.3A10.13,10.13,0,0,1,4.4,20.61a27.39,27.39,0,0,1,6-5.74,56.87,56.87,0,0,1,8.53-5,77.52,77.52,0,0,1,10-4A86,86,0,0,1,39.14,3.13a49.48,49.48,0,0,1,9.35-1A15.45,15.45,0,0,1,53.62,3a14.16,14.16,0,0,1,4.14,2.26,14,14,0,0,1,3,3.32,16,16,0,0,1,1.89,4,.56.56,0,0,0,.74.45c.38-.08.52-.34.41-.78A15.65,15.65,0,0,0,61.82,7.89Z"/><path class="cls-1" d="M56.37,52.1c-.05.27.07.45.37.53s.51,0,.61-.21a21,21,0,0,1,3.12-3.77,3.77,3.77,0,0,1,2.3-1.15c.27,0,.6.44,1,1.31a9.24,9.24,0,0,0,1.31,2.05,3.34,3.34,0,0,0,2.71,1,18.15,18.15,0,0,0,2.87-.29q1.72-.29,3.77-.82t4.31-1.35a37.65,37.65,0,0,0,4.47-2,.46.46,0,0,0,.16-.7.49.49,0,0,0-.66-.29,42.3,42.3,0,0,1-8.45,3.2,28.33,28.33,0,0,1-6.48,1.07,2.39,2.39,0,0,1-1.93-.82,9.74,9.74,0,0,1-1.11-1.56A11.45,11.45,0,0,0,64,47a1.38,1.38,0,0,0-1.19-.66,4.08,4.08,0,0,0-2.17.7,11.11,11.11,0,0,0-2.5,2.42l2.22-12.3c.05-.38-.1-.59-.45-.62a.61.61,0,0,0-.7.45Z"/><path class="cls-1" d="M82.7,48.49a5.73,5.73,0,0,0,.82,1.64,5.28,5.28,0,0,0,1.56,1.44,4.74,4.74,0,0,0,2.54.61,4.07,4.07,0,0,0,2.58-.74A19.27,19.27,0,0,0,92,49.89q.57-.57,1-1a1.48,1.48,0,0,1,1-.41,1.43,1.43,0,0,1,.82.41q.49.41,1.15,1.07A20.05,20.05,0,0,0,98.41,52a5,5,0,0,0,3,1q2.54,0,3.53-1.27a4.75,4.75,0,0,0,1-3,7.06,7.06,0,0,0-1.31-4.27.57.57,0,0,0-.86-.16.53.53,0,0,0-.12.82,7.42,7.42,0,0,1,.82,1.68,5.83,5.83,0,0,1,.33,1.93,3.43,3.43,0,0,1-.74,2.17,3.17,3.17,0,0,1-2.63.94,4.08,4.08,0,0,1-2.5-.9,19.81,19.81,0,0,1-2.09-1.8,14.76,14.76,0,0,0-1.43-1.27A2.24,2.24,0,0,0,94,47.35a2.39,2.39,0,0,0-1.56.53,17.41,17.41,0,0,0-1.31,1.19,18.53,18.53,0,0,1-1.48,1.31,3.18,3.18,0,0,1-2.05.66,3.51,3.51,0,0,1-2-.49,4.61,4.61,0,0,1-1.19-1.11,4.33,4.33,0,0,1-.66-1.27,3.78,3.78,0,0,1-.2-1.07.5.5,0,0,0-.66-.37c-.33.08-.49.26-.49.53A4.76,4.76,0,0,0,82.7,48.49Z"/><path class="cls-1" d="M116.66,44a8.09,8.09,0,0,0-1.93.7,5.32,5.32,0,0,0-1.43,1.07,1.86,1.86,0,0,0-.57,1.27,1.8,1.8,0,0,0,1.48,1.89,3.24,3.24,0,0,0-.82.49.94.94,0,0,0-.41.74q0,1.15,1.43,1.6a13.14,13.14,0,0,0,3.82.45,28.22,28.22,0,0,0,4.14-.37,48.11,48.11,0,0,0,4.92-1,49.61,49.61,0,0,0,4.8-1.52,16.64,16.64,0,0,0,3.69-1.85.56.56,0,0,0,.08-.82.52.52,0,0,0-.74-.16,16,16,0,0,1-3.57,1.81A43,43,0,0,1,127,49.68q-2.42.62-4.76,1a26,26,0,0,1-4,.37q-4.1,0-4.1-.9c0-.38.46-.63,1.4-.74.27,0,.42-.15.45-.45a.43.43,0,0,0-.37-.53,5.89,5.89,0,0,1-1.23-.45,1,1,0,0,1-.57-.94,1.15,1.15,0,0,1,.45-.82,3.81,3.81,0,0,1,1.19-.7,9.18,9.18,0,0,1,1.6-.45,9,9,0,0,1,1.68-.16c.33,0,.49-.19.49-.57s-.16-.57-.49-.57A9.12,9.12,0,0,0,116.66,44Z"/><path class="cls-1" d="M135.57,38a3,3,0,0,1-.21.78q-2.38.49-4.76,1l-4.92,1.11q-.66.08-.49.74c.11.44.38.57.82.41q2.38-.57,4.63-1.07l4.47-1a25.05,25.05,0,0,0-.41,4.43,17.75,17.75,0,0,0,.33,3.4,9.2,9.2,0,0,0,1.15,3,7.23,7.23,0,0,0,2.26,2.3A8.11,8.11,0,0,0,142,54.32c.44.05.7-.11.78-.49s-.12-.6-.61-.66a6.93,6.93,0,0,1-3.08-1.07,6.72,6.72,0,0,1-1.93-2,7.78,7.78,0,0,1-1-2.67,15.8,15.8,0,0,1-.29-3,17.11,17.11,0,0,1,.16-2.34q.16-1.19.33-2.34,6.65-1.31,13.08-2.13t13.74-1.15q.66.08.66-.53t-.66-.61q-7.22.25-13.66,1.07t-12.84,2.13l.25-1q.16-.66-.41-.74a.59.59,0,0,0-.74.41A2.88,2.88,0,0,0,135.57,38Z"/><path class="cls-1" d="M154.92,45.3a1.61,1.61,0,0,0-1.68-.9,4.08,4.08,0,0,0-1.8.49,9,9,0,0,0-1.81,1.19,6.67,6.67,0,0,0-1.35,1.56,3.08,3.08,0,0,0-.53,1.6q0,1.64,1.68,1.39a7.31,7.31,0,0,0,3.73-2.21A8.64,8.64,0,0,0,156,50.1a9.42,9.42,0,0,0,3.16.53,14.38,14.38,0,0,0,4.84-.94,25.4,25.4,0,0,0,4.76-2.26.6.6,0,0,0,.21-.78c-.14-.3-.42-.37-.86-.21a27.06,27.06,0,0,1-4.47,2.13,12.87,12.87,0,0,1-4.47.9,9.07,9.07,0,0,1-2.54-.41,6,6,0,0,1-2.54-1.56,1.47,1.47,0,0,0-.66-.41,1,1,0,0,0-.82.33,14.08,14.08,0,0,1-1.31,1,13.1,13.1,0,0,1-1.19.74,2.64,2.64,0,0,1-.86.33c-.22,0-.33-.07-.33-.29a2,2,0,0,1,.45-1.19,7.28,7.28,0,0,1,1.11-1.19,6.58,6.58,0,0,1,1.39-.94,3.13,3.13,0,0,1,1.4-.37A.71.71,0,0,1,154,46a1.21,1.21,0,0,1,.08.74.48.48,0,0,0,.49.53.58.58,0,0,0,.66-.37A3.16,3.16,0,0,0,154.92,45.3Z"/><path class="cls-2" d="M186.7,22.47a38.4,38.4,0,0,0,8.77-6.84.59.59,0,0,0-.26-.13,27.83,27.83,0,0,0-4.46-.54c-.21.57-.45,1.12-.7,1.67A34,34,0,0,1,187.59,21q-.51.78-1,1.55l.15-.08"/><path class="cls-2" d="M186.54,22.55q.54-.77,1-1.55A34,34,0,0,0,190,16.64c.25-.54.49-1.1.7-1.67h-.32a21.46,21.46,0,0,0-7.25,1,21.87,21.87,0,0,0-2.7,5.95c-.37,1.49-.17,2.9-.66,4.3,2.25-1.23,4.49-2.47,6.73-3.67"/><path class="cls-2" d="M193.32,22.43a28,28,0,0,1-5.77.28c-.44.06-.89.14-1.33.24.45-.1.89-.18,1.33-.24q-.55,0-1.09-.11c-2.22,1.19-4.43,2.41-6.65,3.63,0,.13-.09.26-.15.39a37.51,37.51,0,0,0,9,1,16.31,16.31,0,0,0,4.68-5.18"/><path class="cls-2" d="M193.43,22.23a23.54,23.54,0,0,0,2.24-6,.6.6,0,0,0-.08-.47.58.58,0,0,0-.13-.14,38.35,38.35,0,0,1-8.77,6.84l-.24.13c.36,0,.72.08,1.09.1a28,28,0,0,0,5.77-.28l.11-.19"/><path class="cls-2" d="M180.47,21.93a21.85,21.85,0,0,1,2.7-5.95,18.51,18.51,0,0,0-3.81,1.75,17.44,17.44,0,0,0-3.7,3c0-.11,0-.22.05-.34a16.4,16.4,0,0,0-2.21,9.19c2.12-1.08,4.23-2.21,6.32-3.35.49-1.4.29-2.81.66-4.3"/><path class="cls-2" d="M188.64,27.61a37.61,37.61,0,0,1-9-1c.06-.13.11-.26.15-.39-2.09,1.14-4.19,2.28-6.32,3.35a.36.36,0,0,0,0,0c3,.2,6,1,9,1.29l-.11-.11a25.56,25.56,0,0,0,6.24-3.2"/><path class="cls-2" d="M173.49,29.58a16.4,16.4,0,0,1,2.21-9.19,23.72,23.72,0,0,0,.63-3.29,22.51,22.51,0,0,0-6.32,2c-1.61,3.84-.95,8.76-2.1,12.8l.29.22c1.78-.78,3.54-1.63,5.28-2.51"/><path class="cls-2" d="M184.21,33.19a6.14,6.14,0,0,0-1.69-2.28c-3-.3-6-1.09-9-1.29a.36.36,0,0,0,0,0c-1.74.88-3.5,1.73-5.28,2.51a24.92,24.92,0,0,0,8.86,4.57,36.22,36.22,0,0,0,7.14-3.47"/><path class="cls-3" d="M168.21,32.09c-1.68.74-3.38,1.42-5.1,2a18.49,18.49,0,0,0,7.83,4.35,41.15,41.15,0,0,0,6.13-1.8,24.92,24.92,0,0,1-8.86-4.57"/><path class="cls-2" d="M167.92,31.87c1.16-4,.49-9,2.1-12.8a32.17,32.17,0,0,0-7.54,5.62C161,28,160.79,31.92,163,34l.1.09c1.73-.61,3.43-1.29,5.1-2l-.29-.22"/><path class="cls-3" d="M163,34c-2.22-2.1-2-6-.53-9.34A18.85,18.85,0,0,0,159,29.33c-1.05,2.11-1.2,4-.44,5.53l.15.28.18.29c1.43-.38,2.83-.82,4.21-1.31L163,34"/><path class="cls-3" d="M170.94,38.47a18.49,18.49,0,0,1-7.83-4.35c-1.38.49-2.79.93-4.21,1.31,2.4,3.76,7.25,4,12,3"/><path class="cls-2" d="M151.34,36.6a.63.63,0,0,1-.06-.23.6.6,0,0,1,.57-.63c12.35-.65,34-12.52,42.84-20.1a.6.6,0,1,1,.78.92c-4.8,4.09-12.72,9.06-20.66,13-9.13,4.49-17.27,7.12-22.9,7.42a.6.6,0,0,1-.57-.34"/></g></g></svg>